# Blender 5.0.1
# www.blender.org
mtllib base_layout.mtl
o HOME_base_circle_radius_3
v 1.842940 0.020000 -0.000000
v 1.702877 0.020000 0.705232
v 1.302959 0.020000 1.302959
v 0.705232 0.020000 1.702877
v 0.000000 0.020000 1.842940
v -0.705232 0.020000 1.702877
v -1.302959 0.020000 1.302959
v -1.702877 0.020000 0.705232
v -1.842940 0.020000 -0.000000
v -1.702877 0.020000 -0.705232
v -1.302959 0.020000 -1.302959
v -0.705232 0.020000 -1.702877
v 0.000000 0.020000 -1.842940
v 0.705232 0.020000 -1.702877
v 1.302959 0.020000 -1.302959
v 1.702877 0.020000 -0.705232
vn -0.0000 -1.0000 -0.0000
s 0
usemtl BaseCircle
f 1//1 2//1 3//1 4//1 5//1 6//1 7//1 8//1 9//1 10//1 11//1 12//1 13//1 14//1 15//1 16//1
o HOME_ground_24x24
v -9.242225 -0.016676 -12.000000
v 9.242225 -0.016676 -12.000000
v 9.242225 -0.016674 12.000000
v -9.242225 -0.016674 12.000000
vn -0.0000 -1.0000 -0.0000
s 0
usemtl Ground
f 17//2 18//2 19//2 20//2
o RITUAL_candle_A_marker
v -0.148870 0.060000 -2.257659
v 0.148870 0.060000 -2.257659
v 0.148870 0.060000 -2.002075
v -0.148870 0.060000 -2.002075
vn -0.0000 -1.0000 -0.0000
s 0
usemtl CandleMarker
f 21//3 22//3 23//3 24//3
o RITUAL_candle_B_marker
v 1.780569 0.060000 1.001037
v 2.036153 0.060000 1.001037
v 2.036153 0.060000 1.256622
v 1.780569 0.060000 1.256622
vn -0.0000 -1.0000 -0.0000
s 0
usemtl CandleMarker
f 25//4 26//4 27//4 28//4
o RITUAL_candle_C_marker
v -2.036153 0.060000 1.001037
v -1.780569 0.060000 1.001037
v -1.780569 0.060000 1.256622
v -2.036153 0.060000 1.256622
vn -0.0000 -1.0000 -0.0000
s 0
usemtl CandleMarker
f 29//5 30//5 31//5 32//5
o RITUAL_ring_radius_5
v 2.129867 0.030000 -0.000000
v 1.967571 0.030000 0.814887
v 1.506242 0.030000 1.506242
v 0.814887 0.030000 1.967571
v 0.000000 0.030000 2.129867
v -0.814887 0.030000 1.967571
v -1.506242 0.030000 1.506242
v -1.967571 0.030000 0.814887
v -2.129867 0.030000 -0.000000
v -1.967571 0.030000 -0.814887
v -1.506242 0.030000 -1.506242
v -0.814887 0.030000 -1.967571
v 0.000000 0.030000 -2.129867
v 0.814887 0.030000 -1.967571
v 1.506242 0.030000 -1.506242
v 1.967571 0.030000 -0.814887
l 33 34
l 34 35
l 35 36
l 36 37
l 37 38
l 38 39
l 39 40
l 40 41
l 41 42
l 42 43
l 43 44
l 44 45
l 45 46
l 46 47
l 47 48
l 48 33
o RITUAL_stone_A_marker
v 1.780569 0.060000 -1.256622
v 2.036153 0.060000 -1.256622
v 2.036153 0.060000 -1.001037
v 1.780569 0.060000 -1.001037
vn -0.0000 -1.0000 -0.0000
s 0
usemtl StoneMarker
f 49//6 50//6 51//6 52//6
o RITUAL_stone_B_marker
v -0.127792 0.060000 2.002075
v 0.127792 0.060000 2.002075
v 0.127792 0.060000 2.257659
v -0.127792 0.060000 2.257659
vn -0.0000 -1.0000 -0.0000
s 0
usemtl StoneMarker
f 53//7 54//7 55//7 56//7
o RITUAL_stone_C_marker
v -2.036153 0.060000 -1.256622
v -1.780569 0.060000 -1.256622
v -1.780569 0.060000 -1.001037
v -2.036153 0.060000 -1.001037
vn -0.0000 -1.0000 -0.0000
s 0
usemtl StoneMarker
f 57//8 58//8 59//8 60//8
o home_boy_body_protect
v -0.719094 0.011541 1.581357
v -0.719094 0.078279 1.581357
v -0.719094 0.011541 -1.581357
v -0.719094 0.078279 -1.581357
v 0.719094 0.011541 1.581357
v 0.719094 0.078279 1.581357
v 0.719094 0.011541 -1.581357
v 0.719094 0.078279 -1.581357
vn -1.0000 -0.0000 -0.0000
vn -0.0000 -0.0000 -1.0000
vn 1.0000 -0.0000 -0.0000
vn -0.0000 -0.0000 1.0000
vn -0.0000 -1.0000 -0.0000
vn -0.0000 1.0000 -0.0000
vt 0.375000 0.000000
vt 0.625000 0.000000
vt 0.625000 0.250000
vt 0.375000 0.250000
vt 0.625000 0.500000
vt 0.375000 0.500000
vt 0.625000 0.750000
vt 0.375000 0.750000
vt 0.625000 1.000000
vt 0.375000 1.000000
vt 0.125000 0.500000
vt 0.125000 0.750000
vt 0.875000 0.500000
vt 0.875000 0.750000
s 0
f 61/1/9 62/2/9 64/3/9 63/4/9
f 63/4/10 64/3/10 68/5/10 67/6/10
f 67/6/11 68/5/11 66/7/11 65/8/11
f 65/8/12 66/7/12 62/9/12 61/10/12
f 63/11/13 67/6/13 65/8/13 61/12/13
f 68/5/14 64/13/14 62/14/14 66/7/14
o 1
v -2.141769 0.000002 7.241963
v 2.141769 0.000002 7.241963
v -2.141769 -0.000002 -7.241963
v 2.141769 -0.000002 -7.241963
v 0.000000 0.000002 7.241963
v 0.000000 -0.000002 -7.241963
v -4.283538 0.000000 0.000000
v 4.283538 0.000000 0.000000
v 0.000000 0.000000 0.000000
v 2.141769 0.000000 0.000000
v -2.141769 0.000000 0.000000
v 0.000000 -0.000002 -8.639267
v 2.141769 -0.000002 -8.639267
v -2.141769 -0.000002 -8.639267
v 4.283538 -0.000001 -3.620981
v 0.000000 -0.000001 -3.620981
v 2.141769 -0.000001 -3.620981
v -2.141769 -0.000001 -3.620981
v -4.283538 -0.000001 -3.620981
v -4.283538 0.000001 3.620981
v 4.283538 0.000001 3.620981
v 0.000000 0.000001 3.620981
v 2.141769 0.000001 3.620981
v -2.141769 0.000001 3.620981
v 4.463538 -0.000001 -3.670231
v 2.321769 -0.000002 -7.291212
v -2.321769 -0.000002 -7.291212
v -4.463538 -0.000001 -3.670231
v -4.463538 0.000000 0.000000
v -4.463538 0.000001 3.670231
v 4.463538 0.000001 3.670231
v 4.463538 0.000000 0.000000
v 0.000000 -0.000002 -8.819267
v -2.321769 -0.000002 -8.819267
v 2.321769 -0.000002 -8.819267
v 2.244431 0.000002 7.421963
v -2.244431 0.000002 7.421963
v 0.000000 0.000002 7.421963
vn -0.0000 1.0000 -0.0000
vt 0.672333 0.667624
vt 0.880036 0.667621
vt 0.672337 0.875328
vt 0.256926 0.667632
vt 0.464630 0.667628
vt 0.464633 0.875331
vt 0.256930 0.875335
vt 0.049223 0.667636
vt 0.049215 0.252229
vt 0.256919 0.252225
vt 0.256922 0.459928
vt 0.049219 0.459932
vt 0.464622 0.252221
vt 0.672325 0.252218
vt 0.672329 0.459921
vt 0.464626 0.459925
vt 0.880029 0.252214
vt 0.880033 0.459917
vt 0.464635 0.955482
vt 0.256931 0.955486
vt 0.672338 0.955479
vt 0.672322 0.044514
vt 0.256915 0.044522
vt 0.464618 0.044518
vt 0.897492 0.670445
vt 0.689793 0.878152
vt 0.239474 0.878160
vt 0.031767 0.670461
vt 0.031763 0.459933
vt 0.031759 0.249404
vt 0.897485 0.249389
vt 0.897488 0.459917
vt 0.464635 0.965807
vt 0.239476 0.965811
vt 0.689794 0.965803
vt 0.682277 0.034189
vt 0.246959 0.034197
vt 0.464618 0.034193
s 1
usemtl initialShadingGroup
f 85/15/15 83/16/15 72/17/15
f 86/18/15 84/19/15 74/20/15 71/21/15
f 84/19/15 85/15/15 72/17/15 74/20/15
f 87/22/15 86/18/15 71/21/15
f 88/23/15 92/24/15 79/25/15 75/26/15
f 90/27/15 91/28/15 78/29/15 77/30/15
f 92/24/15 90/27/15 77/30/15 79/25/15
f 91/28/15 89/31/15 76/32/15 78/29/15
f 71/21/15 74/20/15 80/33/15 82/34/15
f 74/20/15 72/17/15 81/35/15 80/33/15
f 75/26/15 79/25/15 86/18/15 87/22/15
f 77/30/15 78/29/15 85/15/15 84/19/15
f 79/25/15 77/30/15 84/19/15 86/18/15
f 78/29/15 76/32/15 83/16/15 85/15/15
f 70/36/15 89/31/15 91/28/15
f 69/37/15 73/38/15 90/27/15 92/24/15
f 73/38/15 70/36/15 91/28/15 90/27/15
f 69/37/15 92/24/15 88/23/15
f 72/17/15 83/16/15 93/39/15 94/40/15
f 87/22/15 71/21/15 95/41/15 96/42/15
f 88/23/15 75/26/15 97/43/15 98/44/15
f 76/32/15 89/31/15 99/45/15 100/46/15
f 82/34/15 80/33/15 101/47/15 102/48/15
f 71/21/15 82/34/15 102/48/15 95/41/15
f 81/35/15 72/17/15 94/40/15 103/49/15
f 80/33/15 81/35/15 103/49/15 101/47/15
f 75/26/15 87/22/15 96/42/15 97/43/15
f 83/16/15 76/32/15 100/46/15 93/39/15
f 89/31/15 70/36/15 104/50/15 99/45/15
f 73/38/15 69/37/15 105/51/15 106/52/15
f 70/36/15 73/38/15 106/52/15 104/50/15
f 69/37/15 88/23/15 98/44/15 105/51/15
