# Blender 5.0.1
# www.blender.org
mtllib base upgrade.mtl
o HOME_ground_24x24
v -9.242225 -0.016674 -12.000002
v 9.242225 -0.016674 -12.000002
v 9.242225 -0.016677 12.000002
v -9.242225 -0.016677 12.000002
vn -0.0000 -1.0000 -0.0000
s 0
usemtl Ground
f 1//1 2//1 3//1
f 1//1 3//1 4//1
o RITUAL_candle_A_marker
v -0.148870 0.060000 -2.257659
v 0.148870 0.060000 -2.257659
v 0.148870 0.060000 -2.002075
v -0.148870 0.060000 -2.002075
vn -0.0000 -1.0000 -0.0000
s 0
usemtl CandleMarker
f 5//2 6//2 7//2
f 5//2 7//2 8//2
o RITUAL_candle_B_marker
v 1.780569 0.060000 1.001038
v 2.036153 0.060000 1.001038
v 2.036153 0.060000 1.256622
v 1.780569 0.060000 1.256622
vn -0.0000 -1.0000 -0.0000
s 0
usemtl CandleMarker
f 9//3 10//3 11//3
f 9//3 11//3 12//3
o RITUAL_candle_C_marker
v -2.036153 0.060000 1.001038
v -1.780569 0.060000 1.001038
v -1.780569 0.060000 1.256622
v -2.036153 0.060000 1.256622
vn -0.0000 -1.0000 -0.0000
s 0
usemtl CandleMarker
f 13//4 14//4 15//4
f 13//4 15//4 16//4
o RITUAL_stone_A_marker
v 1.780569 0.060000 -1.256622
v 2.036153 0.060000 -1.256622
v 2.036153 0.060000 -1.001038
v 1.780569 0.060000 -1.001038
vn -0.0000 -1.0000 -0.0000
s 0
usemtl StoneMarker
f 17//5 18//5 19//5
f 17//5 19//5 20//5
o RITUAL_stone_B_marker
v -0.127792 0.060000 2.002075
v 0.127792 0.060000 2.002075
v 0.127792 0.060000 2.257659
v -0.127792 0.060000 2.257659
vn -0.0000 -1.0000 -0.0000
s 0
usemtl StoneMarker
f 21//6 22//6 23//6
f 21//6 23//6 24//6
o RITUAL_stone_C_marker
v -2.036153 0.060000 -1.256622
v -1.780569 0.060000 -1.256622
v -1.780569 0.060000 -1.001038
v -2.036153 0.060000 -1.001038
vn -0.0000 -1.0000 -0.0000
s 0
usemtl StoneMarker
f 25//7 26//7 27//7
f 25//7 27//7 28//7
o home_boy_body_protect
v -0.719094 0.011541 1.581357
v -0.719094 0.011541 1.581357
v -0.719094 0.011541 1.581357
v -0.719094 0.078279 1.581357
v -0.719094 0.078279 1.581357
v -0.719094 0.078279 1.581357
v -0.719094 0.011541 -1.581357
v -0.719094 0.011541 -1.581357
v -0.719094 0.011541 -1.581357
v -0.719094 0.078279 -1.581357
v -0.719094 0.078279 -1.581357
v -0.719094 0.078279 -1.581357
v 0.719094 0.011541 1.581357
v 0.719094 0.011541 1.581357
v 0.719094 0.011541 1.581357
v 0.719094 0.078279 1.581357
v 0.719094 0.078279 1.581357
v 0.719094 0.078279 1.581357
v 0.719094 0.011541 -1.581357
v 0.719094 0.011541 -1.581357
v 0.719094 0.011541 -1.581357
v 0.719094 0.078279 -1.581357
v 0.719094 0.078279 -1.581357
v 0.719094 0.078279 -1.581357
vn -1.0000 -0.0000 -0.0000
vn -0.0000 -0.0000 -1.0000
vn 1.0000 -0.0000 -0.0000
vn -0.0000 -0.0000 1.0000
vn -0.0000 -1.0000 -0.0000
vn -0.0000 1.0000 -0.0000
vt 0.375000 0.000000
vt 0.625000 0.000000
vt 0.625000 0.250000
vt 0.375000 0.250000
vt 0.625000 0.500000
vt 0.375000 0.500000
vt 0.625000 0.750000
vt 0.375000 0.750000
vt 0.625000 1.000000
vt 0.375000 1.000000
vt 0.125000 0.500000
vt 0.125000 0.750000
vt 0.875000 0.500000
vt 0.875000 0.750000
s 0
f 31/1/8 34/2/8 40/3/8
f 31/1/8 40/3/8 37/4/8
f 35/4/9 38/3/9 50/5/9
f 35/4/9 50/5/9 47/6/9
f 49/6/10 52/5/10 46/7/10
f 49/6/10 46/7/10 43/8/10
f 41/8/11 44/7/11 32/9/11
f 41/8/11 32/9/11 29/10/11
f 36/11/12 48/6/12 42/8/12
f 36/11/12 42/8/12 30/12/12
f 51/5/13 39/13/13 33/14/13
f 51/5/13 33/14/13 45/7/13
o base_ground
v 1.828106 -0.000000 9.005610
v -1.828109 -0.000000 9.005610
v -0.000001 -0.000000 9.005610
v 3.940491 0.000000 0.000001
v -3.940491 -0.000000 -0.000001
v -0.000000 0.000000 0.000000
v -1.828107 -0.000000 -0.000000
v 1.828107 0.000000 0.000000
v -0.000001 -0.000000 10.392086
v -1.828109 -0.000001 10.392086
v 1.828106 -0.000000 10.392086
v -3.940491 0.000001 9.005610
v 3.940491 0.000001 9.005611
v 3.940491 -0.000001 -8.718772
v -3.940491 -0.000001 -8.718773
v 0.000001 -0.000001 -8.718772
v -1.828106 -0.000001 -8.718773
v 1.828108 -0.000001 -8.718772
v -1.828106 2.351802 -8.718773
v 0.000001 2.351803 -8.718772
v 1.828107 2.351803 -8.718772
v 3.940491 2.351802 -8.718772
v -3.940491 2.351802 -8.718773
v -1.828106 4.568479 -8.718773
v 0.000001 4.568479 -8.718772
v 1.828107 4.568479 -8.718772
v 3.940492 3.209353 -8.718772
v -3.940491 3.209353 -8.718773
v -4.112491 0.000001 9.177610
v -2.000109 -0.000000 9.177610
v 2.000106 -0.000000 9.177611
v 4.112492 0.000001 9.177611
v -4.112492 -0.000000 -0.000001
v -0.000001 -0.000001 10.564085
v 2.000106 -0.000000 10.564085
v 4.112492 0.000000 0.000001
v 4.112492 -0.000001 -8.718772
v -4.112491 -0.000001 -8.718773
v -2.000109 -0.000001 10.564085
v 4.112492 2.351802 -8.718772
v -4.112491 2.351802 -8.718773
v -1.878659 4.740479 -8.718773
v 0.000001 4.740479 -8.718772
v 1.878660 4.740479 -8.718772
v 4.112492 3.303214 -8.718772
v -4.112491 3.303213 -8.718773
vn -0.0000 1.0000 -0.0000
vn -0.0000 -0.0000 1.0000
vt 0.030435 0.080765
vt 0.126511 0.080846
vt 0.126206 0.442471
vt 0.030130 0.442390
vt 0.292803 0.080986
vt 0.388879 0.081067
vt 0.388574 0.442693
vt 0.292498 0.442612
vt 0.209704 0.025241
vt 0.292850 0.025311
vt 0.209657 0.080916
vt 0.209352 0.442541
vt 0.209056 0.792649
vt 0.125910 0.792579
vt 0.388279 0.792800
vt 0.292203 0.792719
vt 0.029834 0.792498
vt 0.126558 0.025171
vt 0.208977 0.886302
vt 0.125831 0.886232
vt 0.292124 0.886372
vt 0.388200 0.886453
vt 0.029755 0.886151
vt 0.208903 0.974574
vt 0.125757 0.974504
vt 0.292049 0.974644
vt 0.388171 0.920602
vt 0.029726 0.920300
vt 0.000000 0.000000
vt 1.000000 0.000000
vt 1.000000 1.000000
vt 0.000000 1.000000
s 1
usemtl baseFBXASC032ofFBXASC032houseSG
f 64/15/14 54/16/14 59/17/14 57/18/14
f 53/19/14 65/20/14 56/21/14 60/22/14
f 61/23/14 63/24/14 53/19/14 55/25/14
f 53/19/14 60/22/14 58/26/14 55/25/14
f 59/17/14 54/16/14 55/25/14 58/26/14
f 59/17/14 58/26/14 68/27/14 69/28/14
f 60/22/14 56/21/14 66/29/14 70/30/14
f 57/18/14 59/17/14 69/28/14 67/31/14
f 58/26/14 60/22/14 70/30/14 68/27/14
f 62/32/14 61/23/14 55/25/14 54/16/14
f 69/28/15 68/27/15 72/33/15 71/34/15
f 68/27/15 70/30/15 73/35/15 72/33/15
f 70/30/15 66/29/15 74/36/15 73/35/15
f 67/31/15 69/28/15 71/34/15 75/37/15
f 71/34/15 72/33/15 77/38/15 76/39/15
f 72/33/15 73/35/15 78/40/15 77/38/15
f 73/35/15 74/36/15 79/41/15 78/40/15
f 75/37/15 71/34/15 76/39/15 80/42/15
f 54/43/14 64/44/14 81/45/14 82/46/14
f 65/43/14 53/44/14 83/45/14 84/46/14
f 64/43/14 57/44/14 85/45/14 81/46/14
f 63/43/14 61/44/14 86/45/14 87/46/14
f 53/43/14 63/44/14 87/45/14 83/46/14
f 66/43/14 56/44/14 88/45/14 89/46/14
f 57/43/14 67/44/14 90/45/14 85/46/14
f 56/43/14 65/44/14 84/45/14 88/46/14
f 61/43/14 62/44/14 91/45/14 86/46/14
f 62/43/14 54/44/14 82/45/14 91/46/14
f 74/43/15 66/44/15 89/45/15 92/46/15
f 67/43/15 75/44/15 93/45/15 90/46/15
f 76/43/15 77/44/15 95/45/15 94/46/15
f 77/43/15 78/44/15 96/45/15 95/46/15
f 79/43/15 74/44/15 92/45/15 97/46/15
f 78/43/15 79/44/15 97/45/15 96/46/15
f 75/43/15 80/44/15 98/45/15 93/46/15
f 80/43/15 76/44/15 94/45/15 98/46/15
