# Blender 5.0.1
# www.blender.org
mtllib circus sccene.mtl
o player_spown_area_from_map_(disable_mesh)
v -16.738609 0.001521 -0.075244
v -16.538609 0.001521 -0.075244
v -16.738609 0.001521 -0.275244
v -16.538609 0.001521 -0.275244
vn -0.0000 1.0000 -0.0000
vt 0.000000 0.000000
vt 1.000000 0.000000
vt 1.000000 1.000000
vt 0.000000 1.000000
s 0
f 1/1/1 2/2/1 4/3/1 3/4/1
o go_to_map_(disable_
v -18.511820 -0.144113 1.220487
v -18.511820 0.561356 1.220487
v -19.773512 -0.144113 1.184516
v -19.773512 0.561356 1.184516
v -18.425779 -0.144113 -1.797379
v -18.425779 0.561356 -1.797379
v -19.687471 -0.144113 -1.833350
v -19.687471 0.561356 -1.833350
vn -0.0285 -0.0000 0.9996
vn -0.9996 -0.0000 -0.0285
vn 0.0285 -0.0000 -0.9996
vn 0.9996 -0.0000 0.0285
vn -0.0000 -1.0000 -0.0000
vn -0.0000 1.0000 -0.0000
vt 0.375000 0.000000
vt 0.625000 0.000000
vt 0.625000 0.250000
vt 0.375000 0.250000
vt 0.625000 0.500000
vt 0.375000 0.500000
vt 0.625000 0.750000
vt 0.375000 0.750000
vt 0.625000 1.000000
vt 0.375000 1.000000
vt 0.125000 0.500000
vt 0.125000 0.750000
vt 0.875000 0.500000
vt 0.875000 0.750000
s 0
f 5/5/2 6/6/2 8/7/2 7/8/2
f 7/8/3 8/7/3 12/9/3 11/10/3
f 11/10/4 12/9/4 10/11/4 9/12/4
f 9/12/5 10/11/5 6/13/5 5/14/5
f 7/15/6 11/10/6 9/12/6 5/16/6
f 12/9/7 8/17/7 6/18/7 10/11/7
o base
v -17.579390 0.000000 8.469807
v 17.579390 0.000000 8.469807
v -17.579390 0.000000 -7.912891
v 17.579390 0.000000 -7.912891
vn -0.0000 1.0000 -0.0000
vt 0.000000 0.000000
vt 1.000000 0.000000
vt 1.000000 1.000000
vt 0.000000 1.000000
s 0
f 13/19/8 14/20/8 16/21/8 15/22/8
o Plane
v -18.948940 0.000000 1.000000
v -16.948940 0.000000 1.000000
v -18.948940 0.000000 -1.000000
v -16.948940 0.000000 -1.000000
vn -0.0000 1.0000 -0.0000
vt 0.000000 0.000000
vt 1.000000 0.000000
vt 1.000000 1.000000
vt 0.000000 1.000000
s 0
f 17/23/9 18/24/9 20/25/9 19/26/9
o circus_entry
v 5.536352 -0.511527 -6.904538
v 10.787268 -0.511527 -6.680214
v 5.526703 4.754583 -6.678692
v 10.777618 4.754583 -6.454368
vn -0.0426 -0.0429 0.9982
vt 0.000000 0.000000
vt 1.000000 0.000000
vt 1.000000 1.000000
vt 0.000000 1.000000
s 0
f 21/27/10 22/28/10 24/29/10 23/30/10
o collider_for_inside_circus_scene_(disable)
v 6.342077 -0.296348 -6.841382
v 6.342077 0.296348 -6.841382
v 6.342077 -0.296348 -8.083562
v 6.342077 0.296348 -8.083562
v 8.365996 -0.296348 -6.841382
v 8.365996 0.296348 -6.841382
v 8.365996 -0.296348 -8.083562
v 8.365996 0.296348 -8.083562
vn -1.0000 -0.0000 -0.0000
vn -0.0000 -0.0000 -1.0000
vn 1.0000 -0.0000 -0.0000
vn -0.0000 -0.0000 1.0000
vn -0.0000 -1.0000 -0.0000
vn -0.0000 1.0000 -0.0000
vt 0.375000 0.000000
vt 0.625000 0.000000
vt 0.625000 0.250000
vt 0.375000 0.250000
vt 0.625000 0.500000
vt 0.375000 0.500000
vt 0.625000 0.750000
vt 0.375000 0.750000
vt 0.625000 1.000000
vt 0.375000 1.000000
vt 0.125000 0.500000
vt 0.125000 0.750000
vt 0.875000 0.500000
vt 0.875000 0.750000
s 0
f 25/31/11 26/32/11 28/33/11 27/34/11
f 27/34/12 28/33/12 32/35/12 31/36/12
f 31/36/13 32/35/13 30/37/13 29/38/13
f 29/38/14 30/37/14 26/39/14 25/40/14
f 27/41/15 31/36/15 29/38/15 25/42/15
f 32/35/16 28/43/16 26/44/16 30/37/16
