# Blender 5.0.1
# www.blender.org
mtllib circus enviornment.mtl
o collider_for_inside_circus_scene_(disable)
v 10.876528 -0.233287 -5.690800
v 10.876528 0.233287 -5.690800
v 10.876528 -0.233287 -6.668654
v 10.876528 0.233287 -6.668654
v 12.469772 -0.233287 -5.690800
v 12.469772 0.233287 -5.690800
v 12.469772 -0.233287 -6.668654
v 12.469772 0.233287 -6.668654
vn -1.0000 -0.0000 -0.0000
vn -0.0000 -0.0000 -1.0000
vn 1.0000 -0.0000 -0.0000
vn -0.0000 -0.0000 1.0000
vn -0.0000 -1.0000 -0.0000
vn -0.0000 1.0000 -0.0000
vt 0.375000 0.000000
vt 0.625000 0.000000
vt 0.625000 0.250000
vt 0.375000 0.250000
vt 0.625000 0.500000
vt 0.375000 0.500000
vt 0.625000 0.750000
vt 0.375000 0.750000
vt 0.625000 1.000000
vt 0.375000 1.000000
vt 0.125000 0.500000
vt 0.125000 0.750000
vt 0.875000 0.500000
vt 0.875000 0.750000
s 1
usemtl lambert1
f 1/1/1 2/2/1 4/3/1 3/4/1
f 3/4/2 4/3/2 8/5/2 7/6/2
f 7/6/3 8/5/3 6/7/3 5/8/3
f 5/8/4 6/7/4 2/9/4 1/10/4
f 3/11/5 7/6/5 5/8/5 1/12/5
f 8/5/6 4/13/6 2/14/6 6/7/6
o go_to_map_(disable_
v -18.511820 -0.144113 1.220487
v -18.511820 0.561357 1.220487
v -19.773512 -0.144114 1.184516
v -19.773512 0.561356 1.184516
v -18.425779 -0.144113 -1.797379
v -18.425779 0.561357 -1.797379
v -19.687471 -0.144114 -1.833351
v -19.687471 0.561356 -1.833351
vn -0.0285 -0.0000 0.9996
vn -0.9996 -0.0000 -0.0285
vn 0.0285 -0.0000 -0.9996
vn 0.9996 -0.0000 0.0285
vn -0.0000 -1.0000 -0.0000
vn -0.0000 1.0000 -0.0000
vt 0.375000 0.000000
vt 0.625000 0.000000
vt 0.625000 0.250000
vt 0.375000 0.250000
vt 0.625000 0.500000
vt 0.375000 0.500000
vt 0.625000 0.750000
vt 0.375000 0.750000
vt 0.625000 1.000000
vt 0.375000 1.000000
vt 0.125000 0.500000
vt 0.125000 0.750000
vt 0.875000 0.500000
vt 0.875000 0.750000
s 1
usemtl lambert1
f 9/15/7 10/16/7 12/17/7 11/18/7
f 11/18/8 12/17/8 16/19/8 15/20/8
f 15/20/9 16/19/9 14/21/9 13/22/9
f 13/22/10 14/21/10 10/23/10 9/24/10
f 11/25/11 15/20/11 13/22/11 9/26/11
f 16/19/12 12/27/12 10/28/12 14/21/12
o base-m5
v -15.821453 0.000001 8.469807
v 19.492044 0.000001 8.469807
v 21.249987 0.000001 6.003172
v 21.249987 -0.000001 -5.446254
v 19.492044 -0.000001 -7.912891
v -15.821453 -0.000001 -7.912891
v -17.579390 -0.000001 -6.202521
v -17.579390 0.000001 6.759439
v -15.911223 0.000001 8.690806
v 19.605923 0.000001 8.690806
v 21.470985 0.000001 6.073866
v 21.470985 -0.000001 -5.516947
v 19.605923 -0.000001 -8.133891
v -15.911223 -0.000001 -8.133891
v -17.800392 -0.000001 -6.295843
v -17.800392 0.000001 6.852761
vn -0.0000 1.0000 -0.0000
vt 0.045398 0.073458
vt 0.082059 0.028954
vt 0.818509 0.028954
vt 0.855170 0.093137
vt 0.855170 0.391057
vt 0.818509 0.455240
vt 0.082059 0.455240
vt 0.045398 0.410735
vt 0.080187 0.023203
vt 0.820884 0.023203
vt 0.859779 0.091297
vt 0.859779 0.392896
vt 0.820884 0.460990
vt 0.080187 0.460990
vt 0.040789 0.413163
vt 0.040789 0.071030
s 1
usemtl lambert3
f 24/29/13 17/30/13 18/31/13 19/32/13 20/33/13 21/34/13 22/35/13 23/36/13
f 18/31/13 17/30/13 25/37/13 26/38/13
f 20/33/13 19/32/13 27/39/13 28/40/13
f 22/35/13 21/34/13 29/41/13 30/42/13
f 24/29/13 23/36/13 31/43/13 32/44/13
f 17/30/13 24/29/13 32/44/13 25/37/13
f 19/32/13 18/31/13 26/38/13 27/39/13
f 23/36/13 22/35/13 30/42/13 31/43/13
f 21/34/13 20/33/13 28/40/13 29/41/13
o user_walking_space-m5
v -19.674778 0.052795 2.143251
v 17.464539 0.052795 2.143251
v -19.674778 0.052795 -1.307677
v 17.464539 0.052795 -1.307677
v -9.403322 0.052795 1.617947
v -9.403322 0.052795 -1.832981
v 5.860028 0.052795 3.152928
v 5.860028 0.052795 -0.298001
v 10.554012 0.052795 -1.095662
v 13.741020 0.052795 -1.307677
v 13.832891 0.052795 2.143251
v 10.645885 0.052795 2.355266
v 13.476351 0.052794 -7.741694
v 10.289343 0.052794 -7.529679
vn -0.0000 1.0000 -0.0000
vt 0.029662 0.555298
vt 0.256952 0.571222
vt 0.256207 0.663816
vt 0.028917 0.647892
vt 0.666825 0.533329
vt 0.666080 0.625924
vt 0.877323 0.654716
vt 0.880533 0.562141
vt 0.977976 0.562925
vt 0.977231 0.655519
vt 0.795065 0.555765
vt 0.791856 0.648339
vt 0.868833 0.827294
vt 0.783366 0.820918
s 1
usemtl lambert3
f 33/45/14 37/46/14 38/47/14 35/48/14
f 37/46/14 39/49/14 40/50/14 38/47/14
f 42/51/14 43/52/14 34/53/14 36/54/14
f 39/49/14 44/55/14 41/56/14 40/50/14
f 42/51/14 41/56/14 44/55/14 43/52/14
f 41/56/14 42/51/14 45/57/14 46/58/14
o player_spown_area_from_map_(disable_mesh)
v -16.738609 0.001521 -0.075244
v -16.538609 0.001521 -0.075244
v -16.738609 0.001521 -0.275244
v -16.538609 0.001521 -0.275244
vn -0.0000 1.0000 -0.0000
vt 0.000000 0.000000
vt 1.000000 0.000000
vt 1.000000 1.000000
vt 0.000000 1.000000
s 1
usemtl lambert1
f 47/59/15 48/60/15 50/61/15 49/62/15
o circus_tent__m3
v 7.510633 -0.360946 -7.144936
v 16.869663 -0.360946 -7.144936
v 7.510633 8.281397 -7.992908
v 16.869663 8.281397 -7.992908
v 12.190148 -0.333472 -6.801589
v 12.190148 8.308870 -7.649561
v 9.850391 8.308870 -7.649561
v 9.850391 -0.333472 -6.801589
v 14.529905 -0.333472 -6.801589
v 14.529905 8.308870 -7.649561
vn 0.1456 0.0966 0.9846
vn -0.0000 0.0976 0.9952
vn -0.1456 0.0966 0.9846
vt 0.750000 0.000000
vt 1.000000 0.000000
vt 1.000000 1.000000
vt 0.750000 1.000000
vt 0.250000 0.000000
vt 0.500000 0.000000
vt 0.500000 1.000000
vt 0.250000 1.000000
vt 0.000000 0.000000
vt 0.000000 1.000000
s 0
usemtl Material
f 59/63/16 52/64/16 54/65/16 60/66/16
f 58/67/17 55/68/17 56/69/17 57/70/17
f 51/71/18 58/67/18 57/70/18 53/72/18
f 55/68/17 59/63/17 60/66/17 56/69/17
o circular_trolly_circus_M1
v -15.249880 -0.524422 -7.709736
v -2.617690 -0.524422 -7.709736
v -15.249880 12.087223 -8.204075
v -2.617690 12.087223 -8.204075
vn -0.0000 0.0392 0.9992
vt 0.000000 0.000000
vt 1.000000 0.000000
vt 1.000000 1.000000
vt 0.000000 1.000000
s 0
usemtl Material.001
f 61/73/19 62/74/19 64/75/19 63/76/19
o circus_Props_M2
v -6.566520 -0.004080 -5.081007
v -3.771002 -0.004080 -5.081007
v -6.566520 1.896394 -5.094935
v -3.771002 1.896394 -5.094935
vn -0.0000 0.0073 1.0000
vt 0.348599 0.346532
vt 0.742346 0.346532
vt 0.742346 0.740279
vt 0.348599 0.740279
s 0
usemtl Material.002
f 65/77/20 66/78/20 68/79/20 67/80/20
o circus_props_m2.007
v -15.254774 0.006439 4.748131
v -12.293447 0.006439 4.748131
v -15.254774 1.661513 4.493112
v -12.293447 1.661513 4.493112
vn -0.0000 0.1523 0.9883
vt 0.013756 0.022541
vt 0.363065 0.022541
vt 0.363065 0.344979
vt 0.013756 0.334128
s 0
usemtl Material.003
f 69/81/21 70/82/21 72/83/21 71/84/21
o circus_props_m2.008
v -16.022152 -0.059304 -3.899863
v -13.877124 -0.113991 -4.288081
v -16.099623 1.998239 -4.617752
v -13.954595 1.943553 -5.005969
vn 0.1762 0.3302 0.9273
vt 0.015805 0.338988
vt 0.317651 0.351292
vt 0.300899 0.783856
vt 0.019086 0.808659
s 0
usemtl Material.003
f 73/85/22 74/86/22 76/87/22 75/88/22
o circus_props_m2-1
v 4.394021 -0.098090 -1.322353
v 7.355348 -0.098090 -1.322353
v 4.394021 1.556983 -1.577373
v 7.355348 1.556983 -1.577373
vn -0.0000 0.1523 0.9883
vt 0.364101 0.045794
vt 0.771283 0.045794
vt 0.771283 0.344979
vt 0.364101 0.334128
s 0
usemtl Material.003
f 77/89/23 78/90/23 80/91/23 79/92/23
o circus_props_m2
v 7.169127 -0.195222 -1.054323
v 10.121305 -0.195222 -1.286931
v 7.149096 1.459852 -1.308555
v 10.101274 1.459852 -1.541162
vn 0.0776 0.1523 0.9853
vt 0.364101 0.045794
vt 0.771283 0.045794
vt 0.771283 0.344979
vt 0.364101 0.334128
s 0
usemtl Material.003
f 81/93/24 82/94/24 84/95/24 83/96/24
o circus_props_m2.001
v 16.479218 -0.195222 -1.054323
v 19.431395 -0.195222 -1.286931
v 16.459185 1.459852 -1.308555
v 19.411362 1.459852 -1.541162
vn 0.0776 0.1523 0.9853
vt 0.364101 0.045794
vt 0.771283 0.045794
vt 0.771283 0.344979
vt 0.364101 0.334128
s 0
usemtl Material.004
f 85/97/25 86/98/25 88/99/25 87/100/25
o circus_props_m2.002
v 13.704110 -0.098090 -1.322353
v 16.665438 -0.098090 -1.322353
v 13.704110 1.556983 -1.577373
v 16.665438 1.556983 -1.577373
vn -0.0000 0.1523 0.9883
vt 0.364101 0.045794
vt 0.771283 0.045794
vt 0.771283 0.344979
vt 0.364101 0.334128
s 0
usemtl Material.004
f 89/101/26 90/102/26 92/103/26 91/104/26
o circus_props_m2.003
v 9.915133 -0.234561 -1.414351
v 9.834119 -0.234561 -4.374569
v 9.660209 1.420513 -1.407374
v 9.579195 1.420513 -4.367593
vn 0.9880 0.1523 -0.0270
vt 0.364101 0.045794
vt 0.771283 0.045794
vt 0.771283 0.344979
vt 0.364101 0.334128
s 0
usemtl Material.005
f 93/105/27 94/106/27 96/107/27 95/108/27
o circus_props_m2.004
v 9.915133 -0.234561 -4.005707
v 9.834119 -0.234561 -6.965926
v 9.660209 1.420513 -3.998731
v 9.579195 1.420513 -6.958950
vn 0.9880 0.1523 -0.0270
vt 0.364101 0.045794
vt 0.771283 0.045794
vt 0.771283 0.344979
vt 0.364101 0.334128
s 0
usemtl Material.006
f 97/109/28 98/110/28 100/111/28 99/112/28
o circus_props_m2.005
v 13.617148 -0.234561 -6.928645
v 14.048343 -0.234561 -3.998879
v 13.869451 1.420513 -6.965778
v 14.300645 1.420513 -4.036012
vn -0.9778 0.1523 0.1439
vt 0.364101 0.045794
vt 0.771283 0.045794
vt 0.771283 0.344979
vt 0.364101 0.334128
s 0
usemtl Material.007
f 101/113/29 102/114/29 104/115/29 103/116/29
o circus_props_m2.006
v 13.868257 -0.234561 -4.251805
v 14.299451 -0.234561 -1.322038
v 14.120559 1.420513 -4.288938
v 14.551753 1.420513 -1.359171
vn -0.9778 0.1523 0.1439
vt 0.364101 0.045794
vt 0.771283 0.045794
vt 0.771283 0.344979
vt 0.364101 0.334128
s 0
usemtl Material.008
f 105/117/30 106/118/30 108/119/30 107/120/30
o popcorn_machine
v -8.140119 -0.103399 7.031829
v -4.210169 -0.103399 7.031829
v -8.140119 3.692876 6.625930
v -4.210169 3.692876 6.625930
vn -0.0000 0.1063 0.9943
vt 0.000000 0.000000
vt 1.000000 0.000000
vt 1.000000 1.000000
vt 0.000000 1.000000
s 0
usemtl Material.009
f 109/121/31 110/122/31 112/123/31 111/124/31
o circus_props_m2.009
v 15.551693 -0.059304 5.342893
v 17.696722 -0.113991 4.954675
v 15.474222 1.998239 4.625004
v 17.619251 1.943553 4.236787
vn 0.1762 0.3302 0.9273
vt 0.015805 0.338988
vt 0.317651 0.351292
vt 0.300899 0.783856
vt 0.019086 0.808659
s 0
usemtl Material.010
f 113/125/32 114/126/32 116/127/32 115/128/32
