# Blender 5.0.1
# www.blender.org
mtllib home lobby scene.mtl
o collider-for_exit_from_house_will_open_map_(Disable)
v -4.981951 0.045481 7.156010
v -4.981951 0.750951 7.156010
v -4.981951 0.045481 5.893806
v -4.981951 0.750951 5.893806
v -1.962859 0.045481 7.156010
v -1.962859 0.750951 7.156010
v -1.962859 0.045481 5.893806
v -1.962859 0.750951 5.893806
vn -1.0000 -0.0000 -0.0000
vn -0.0000 -0.0000 -1.0000
vn 1.0000 -0.0000 -0.0000
vn -0.0000 -0.0000 1.0000
vn -0.0000 -1.0000 -0.0000
vn -0.0000 1.0000 -0.0000
vt 0.375000 0.000000
vt 0.625000 0.000000
vt 0.625000 0.250000
vt 0.375000 0.250000
vt 0.625000 0.500000
vt 0.375000 0.500000
vt 0.625000 0.750000
vt 0.375000 0.750000
vt 0.625000 1.000000
vt 0.375000 1.000000
vt 0.125000 0.500000
vt 0.125000 0.750000
vt 0.875000 0.500000
vt 0.875000 0.750000
s 0
f 1/1/1 2/2/1 4/3/1 3/4/1
f 3/4/2 4/3/2 8/5/2 7/6/2
f 7/6/3 8/5/3 6/7/3 5/8/3
f 5/8/4 6/7/4 2/9/4 1/10/4
f 3/11/5 7/6/5 5/8/5 1/12/5
f 8/5/6 4/13/6 2/14/6 6/7/6
o player_spown_area_from_basement_(disable_mesh)
v 3.249654 0.001521 -5.787759
v 3.449654 0.001521 -5.787759
v 3.249654 0.001521 -5.987759
v 3.449654 0.001521 -5.987759
vn -0.0000 1.0000 -0.0000
vt 0.000000 0.000000
vt 1.000000 0.000000
vt 1.000000 1.000000
vt 0.000000 1.000000
s 0
f 9/15/7 10/16/7 12/17/7 11/18/7
o collider_for_go_again_in_basment_(disable_
v 1.821727 -0.144113 -7.034706
v 1.821727 0.561357 -7.034706
v 1.821727 -0.144113 -8.296909
v 1.821727 0.561357 -8.296909
v 4.840818 -0.144113 -7.034706
v 4.840818 0.561357 -7.034706
v 4.840818 -0.144113 -8.296909
v 4.840818 0.561357 -8.296909
vn -1.0000 -0.0000 -0.0000
vn -0.0000 -0.0000 -1.0000
vn 1.0000 -0.0000 -0.0000
vn -0.0000 -0.0000 1.0000
vn -0.0000 -1.0000 -0.0000
vn -0.0000 1.0000 -0.0000
vt 0.375000 0.000000
vt 0.625000 0.000000
vt 0.625000 0.250000
vt 0.375000 0.250000
vt 0.625000 0.500000
vt 0.375000 0.500000
vt 0.625000 0.750000
vt 0.375000 0.750000
vt 0.625000 1.000000
vt 0.375000 1.000000
vt 0.125000 0.500000
vt 0.125000 0.750000
vt 0.875000 0.500000
vt 0.875000 0.750000
s 0
f 13/19/8 14/20/8 16/21/8 15/22/8
f 15/22/9 16/21/9 20/23/9 19/24/9
f 19/24/10 20/23/10 18/25/10 17/26/10
f 17/26/11 18/25/11 14/27/11 13/28/11
f 15/29/12 19/24/12 17/26/12 13/30/12
f 20/23/13 16/31/13 14/32/13 18/25/13
o player_spown_area_from_map_(disable_mesh)
v -3.779487 0.001521 4.929212
v -3.579487 0.001521 4.929212
v -3.779487 0.001521 4.729212
v -3.579487 0.001521 4.729212
vn -0.0000 1.0000 -0.0000
vt 0.000000 0.000000
vt 1.000000 0.000000
vt 1.000000 1.000000
vt 0.000000 1.000000
s 0
f 21/33/14 22/34/14 24/35/14 23/36/14
o room2_base_
v -5.564053 0.001522 5.259487
v 5.861039 0.001522 5.259487
v 5.861039 0.001521 -7.934956
v 0.626408 0.001522 5.259487
v 0.626408 0.001521 -7.934956
v -5.564053 0.001521 -0.160554
v 5.861039 0.001521 -0.160554
v 0.626408 0.001521 -0.160554
v -5.564053 0.001521 3.983477
v 5.861039 0.001521 3.983477
v 0.626408 0.001521 3.983477
v -1.931296 0.001522 5.259487
v -1.931296 0.001521 -0.160554
v -1.931296 0.001521 3.983477
v -3.747674 0.001521 -0.160554
v -3.747674 0.001521 3.983477
v -3.747674 0.001522 5.259487
v -5.087422 0.001521 -0.160554
v -5.087422 0.001521 3.983477
v -5.087422 0.001522 5.259487
v -1.933316 0.001522 6.422870
v -3.749694 0.001522 6.422870
v -5.089443 0.001522 6.422870
v 5.861039 0.001521 -5.071332
v 0.626408 0.001521 -5.071332
v -5.564053 0.001521 -5.071332
v -1.931296 0.001521 -5.071332
v -3.747674 0.001521 -5.071332
v -5.087422 0.001521 -5.071332
v 5.861039 4.218975 -7.934957
v 0.626408 4.218975 -7.934957
v 0.626408 4.218975 -5.071333
v -5.087422 4.218975 -5.071333
v -5.564053 4.218975 -5.071333
v -3.747674 4.218975 -5.071333
v -1.931296 4.218975 -5.071333
v 2.298929 0.020871 -7.885031
v 4.262810 0.020871 -7.885031
v 2.298929 3.369578 -7.885031
v 4.262810 3.369578 -7.885031
vn -0.0000 1.0000 -0.0000
vn -0.0000 -0.0000 1.0000
vn 1.0000 -0.0000 -0.0000
vt 0.344783 0.598481
vt 0.609330 0.601368
vt 0.607945 0.728234
vt 0.343398 0.725347
vt 0.219900 0.195917
vt 0.349161 0.197327
vt 0.347157 0.380919
vt 0.217896 0.379509
vt 0.613709 0.200215
vt 0.611705 0.383807
vt 0.349778 0.140797
vt 0.614325 0.143684
vt 0.220517 0.139386
vt 0.128721 0.138384
vt 0.128104 0.194915
vt 0.126100 0.378507
vt 0.060396 0.194176
vt 0.058392 0.377768
vt 0.061013 0.137645
vt 0.036925 0.137382
vt 0.036308 0.193913
vt 0.034304 0.377505
vt 0.061473 0.086103
vt 0.129181 0.086842
vt 0.220977 0.087844
vt 0.056017 0.595329
vt 0.031929 0.595066
vt 0.123725 0.596068
vt 0.215521 0.597070
vt 0.407156 0.744831
vt 0.639229 0.745085
vt 0.629905 0.961894
vt 0.397833 0.961640
vt 0.295864 0.744709
vt 0.286540 0.961518
vt 0.021415 0.744409
vt 0.042546 0.744432
vt 0.033222 0.961240
vt 0.012091 0.961217
vt 0.101943 0.744497
vt 0.092619 0.961305
vt 0.182470 0.744585
vt 0.173146 0.961394
vt 0.689067 0.646960
vt 0.845660 0.649158
vt 0.841663 0.933975
vt 0.685071 0.931778
s 1
usemtl lambert2SG
f 49/37/15 48/38/15 27/39/15 29/40/15
f 38/41/15 35/42/15 32/43/15 37/44/15
f 35/42/15 34/45/15 31/46/15 32/43/15
f 28/47/15 26/48/15 34/45/15 35/42/15
f 36/49/15 28/47/15 35/42/15 38/41/15
f 41/50/15 36/49/15 38/41/15 40/51/15
f 40/51/15 38/41/15 37/44/15 39/52/15
f 43/53/15 40/51/15 39/52/15 42/54/15
f 44/55/15 41/50/15 40/51/15 43/53/15
f 25/56/15 44/55/15 43/53/15 33/57/15
f 33/57/15 43/53/15 42/54/15 30/58/15
f 41/50/15 44/55/15 47/59/15 46/60/15
f 36/49/15 41/50/15 46/60/15 45/61/15
f 30/58/15 42/54/15 53/62/15 50/63/15
f 42/54/15 39/52/15 52/64/15 53/62/15
f 39/52/15 37/44/15 51/65/15 52/64/15
f 37/44/15 32/43/15 49/37/15 51/65/15
f 32/43/15 31/46/15 48/38/15 49/37/15
f 29/66/16 27/67/16 54/68/16 55/69/16
f 49/70/17 29/66/17 55/69/17 56/71/17
f 50/72/16 53/73/16 57/74/16 58/75/16
f 53/73/16 52/76/16 59/77/16 57/74/16
f 52/76/16 51/78/16 60/79/16 59/77/16
f 51/78/16 49/70/16 56/71/16 60/79/16
f 61/80/16 62/81/16 64/82/16 63/83/16
