# Blender 5.0.1
# www.blender.org
mtllib inside circus tent scene.mtl
o arcade_game_obstacle(disable)_m2
v -7.731627 0.242089 -7.104476
v -7.731627 0.538280 -7.008237
v -7.731627 0.538280 -6.696804
v -7.731627 0.242089 -6.600565
v -7.731627 0.059032 -6.852520
v 7.700254 0.242089 -7.104476
v 7.700254 0.538280 -7.008237
v 7.700254 0.538280 -6.696804
v 7.700254 0.242089 -6.600565
v 7.700254 0.059032 -6.852520
v -7.731627 0.323954 -6.852520
v 7.700254 0.323954 -6.852520
vn -0.0000 0.3090 -0.9511
vn -0.0000 1.0000 -0.0000
vn -0.0000 0.3090 0.9511
vn -0.0000 -0.8090 0.5878
vn -0.0000 -0.8090 -0.5878
vn -1.0000 -0.0000 -0.0000
vn 1.0000 -0.0000 -0.0000
vt 0.021458 0.000000
vt 0.048244 0.000576
vt 0.026786 0.997694
vt 0.000000 0.997118
vt 0.075030 0.001153
vt 0.053572 0.998271
vt 0.101816 0.001729
vt 0.080359 0.998847
vt 0.128603 0.002306
vt 0.107145 0.999424
vt 0.155389 0.002882
vt 0.133931 1.000000
vt 0.228140 0.037200
vt 0.286851 0.018235
vt 0.270547 0.068122
vt 0.228034 0.098899
vt 0.286680 0.118066
vt 0.323031 0.068212
vt 0.425465 0.119220
vt 0.365462 0.099610
vt 0.408959 0.068122
vt 0.365571 0.036484
vt 0.425640 0.017080
vt 0.462657 0.068214
s 1
usemtl Material.001
f 1/1/1 2/2/1 7/3/1 6/4/1
f 2/2/2 3/5/2 8/6/2 7/3/2
f 3/5/3 4/7/3 9/8/3 8/6/3
f 4/7/4 5/9/4 10/10/4 9/8/4
f 5/9/5 1/11/5 6/12/5 10/10/5
f 2/13/6 1/14/6 11/15/6
f 3/16/6 2/13/6 11/15/6
f 4/17/6 3/16/6 11/15/6
f 5/18/6 4/17/6 11/15/6
f 1/14/6 5/18/6 11/15/6
f 6/19/7 7/20/7 12/21/7
f 7/20/7 8/22/7 12/21/7
f 8/22/7 9/23/7 12/21/7
f 9/23/7 10/24/7 12/21/7
f 10/24/7 6/19/7 12/21/7
o back_to_circus__it_will_exit_user(Disable)
v -1.000000 -0.005122 6.636668
v -1.000000 0.395024 6.636668
v -1.000000 -0.005122 6.120192
v -1.000000 0.395024 6.120192
v 1.000000 -0.005122 6.636668
v 1.000000 0.395024 6.636668
v 1.000000 -0.005122 6.120192
v 1.000000 0.395024 6.120192
vn -1.0000 -0.0000 -0.0000
vn -0.0000 -0.0000 -1.0000
vn 1.0000 -0.0000 -0.0000
vn -0.0000 -0.0000 1.0000
vn -0.0000 -1.0000 -0.0000
vn -0.0000 1.0000 -0.0000
vt 0.375000 0.000000
vt 0.625000 0.000000
vt 0.625000 0.250000
vt 0.375000 0.250000
vt 0.625000 0.500000
vt 0.375000 0.500000
vt 0.625000 0.750000
vt 0.375000 0.750000
vt 0.625000 1.000000
vt 0.375000 1.000000
vt 0.125000 0.500000
vt 0.125000 0.750000
vt 0.875000 0.500000
vt 0.875000 0.750000
s 1
f 13/25/8 14/26/8 16/27/8 15/28/8
f 15/28/9 16/27/9 20/29/9 19/30/9
f 19/30/10 20/29/10 18/31/10 17/32/10
f 17/32/11 18/31/11 14/33/11 13/34/11
f 15/35/12 19/30/12 17/32/12 13/36/12
f 20/29/13 16/37/13 14/38/13 18/31/13
o base_platform_where_user_move_m1
v -4.495904 0.000000 6.422721
v 4.495904 0.000000 6.422721
v -6.422721 0.000000 4.495904
v -6.422721 -0.000000 -4.495904
v 6.422721 0.000000 4.495904
v 6.422721 -0.000000 -4.495904
v -4.495904 -0.000000 -6.422721
v 4.495904 -0.000000 -6.422721
v -4.656127 0.000001 6.651611
v 4.656127 0.000001 6.651611
v -6.651611 0.000000 4.656127
v -6.651611 -0.000000 -4.656127
v 6.651610 0.000000 4.656127
v 6.651610 -0.000000 -4.656127
v -4.656127 -0.000001 -6.651611
v 4.656127 -0.000001 -6.651611
vn -0.0000 1.0000 -0.0000
vt 0.028129 0.169691
vt 0.169691 0.028129
vt 0.830309 0.028129
vt 0.971871 0.169691
vt 0.971871 0.830309
vt 0.830309 0.971871
vt 0.169691 0.971871
vt 0.028129 0.830309
vt 0.157919 0.011313
vt 0.842081 0.011313
vt 0.011313 0.842081
vt 0.011313 0.157919
vt 0.988687 0.157919
vt 0.988687 0.842081
vt 0.842081 0.988687
vt 0.157919 0.988687
s 1
usemtl lambert1
f 23/39/14 21/40/14 22/41/14 25/42/14 26/43/14 28/44/14 27/45/14 24/46/14
f 22/41/14 21/40/14 29/47/14 30/48/14
f 23/39/14 24/46/14 32/49/14 31/50/14
f 26/43/14 25/42/14 33/51/14 34/52/14
f 27/45/14 28/44/14 36/53/14 35/54/14
f 21/40/14 23/39/14 31/50/14 29/47/14
f 25/42/14 22/41/14 30/48/14 33/51/14
f 24/46/14 27/45/14 35/54/14 32/49/14
f 28/44/14 26/43/14 34/52/14 36/53/14
o circus_owner_m5
v -0.961892 -0.070717 0.032251
v 0.961892 -0.070717 0.032251
v -0.961892 2.776226 -0.686438
v 0.961892 2.776226 -0.686438
vn -0.0000 0.2448 0.9696
vt 0.000000 0.000000
vt 1.000000 0.000000
vt 1.000000 1.000000
vt 0.000000 1.000000
s 1
usemtl Material.002
f 37/55/15 38/56/15 40/57/15 39/58/15
o entry_poing_m1
v -1.046393 0.000000 7.248296
v 1.046393 0.000000 7.248296
v -1.046393 -0.000000 6.645600
v 1.046393 -0.000000 6.645600
vn -0.0000 1.0000 -0.0000
vt 0.019369 0.946650
vt 0.100119 0.946650
vt 0.100119 0.980367
vt 0.019369 0.980367
s 1
usemtl lambert1
f 41/59/16 42/60/16 44/61/16 43/62/16
