# Blender 5.0.1
# www.blender.org
mtllib shop beach scene.mtl
o bridge_bar
v 1.952766 -1.203302 11.070327
v 2.393403 -1.203302 11.070327
v 1.952766 0.302206 11.070327
v 2.393403 0.302206 11.070327
vn -0.0000 -0.0000 1.0000
vt 0.413230 0.787972
vt 0.468951 0.787972
vt 0.468951 0.973251
vt 0.413230 0.973251
s 1
usemtl lambert4.001
f 1/1/1 2/2/1 4/3/1 3/4/1
o soul_platform_-m3_(disable)
v -7.197097 0.099305 3.977655
v -4.948705 0.099305 3.972712
v -7.197097 0.150695 3.977655
v -4.948705 0.150695 3.972712
v -7.199721 0.150694 2.784235
v -4.951329 0.150694 2.779293
v -7.199721 0.099305 2.784235
v -4.951329 0.099305 2.779293
vn 0.0022 -0.0000 1.0000
vn -0.0000 1.0000 -0.0000
vn -0.0022 -0.0000 -1.0000
vn -0.0000 -1.0000 -0.0000
vn 1.0000 -0.0000 -0.0022
vn -1.0000 -0.0000 0.0022
vt 0.728687 0.136713
vt 0.943452 0.138138
vt 0.952541 0.155642
vt 0.720804 0.156125
vt 0.445744 0.039676
vt 0.688112 0.038991
vt 0.688213 0.135123
vt 0.445845 0.135808
vt 0.720531 0.029121
vt 0.952344 0.028579
vt 0.944442 0.047969
vt 0.729669 0.046562
s 1
usemtl lambert7
f 5/5/2 6/6/2 8/7/2 7/8/2
f 7/9/3 8/10/3 10/11/3 9/12/3
f 9/13/4 10/14/4 12/15/4 11/16/4
f 11/16/5 12/15/5 6/6/5 5/5/5
f 6/6/6 12/15/6 10/14/6 8/7/6
f 11/16/7 5/5/7 7/8/7 9/13/7
o base2
v 1.754431 0.003586 11.425705
v 5.250694 0.003586 11.425705
v 1.754431 0.003587 8.068062
v 5.250694 0.003587 8.068062
vn -0.0000 1.0000 -0.0000
vt 0.642250 0.655846
vt 0.956305 0.655846
vt 0.956305 0.969900
vt 0.642250 0.969900
s 1
usemtl lambert4.001
f 13/17/8 14/18/8 16/19/8 15/20/8
o bridge_bar2
v 4.553015 -1.203302 11.070327
v 4.993652 -1.203302 11.070327
v 4.553015 0.302206 11.070327
v 4.993652 0.302206 11.070327
vn -0.0000 -0.0000 1.0000
vt 0.272213 0.784091
vt 0.327933 0.784091
vt 0.327933 0.969370
vt 0.272213 0.969370
s 1
usemtl lambert4.001
f 17/21/9 18/22/9 20/23/9 19/24/9
o bridge_bar4
v 1.952766 -1.203302 9.122097
v 2.393403 -1.203302 9.122097
v 1.952766 0.302206 9.122097
v 2.393403 0.302206 9.122097
vn -0.0000 -0.0000 1.0000
vt 0.486974 0.782797
vt 0.542694 0.782797
vt 0.542694 0.968076
vt 0.486974 0.968076
s 1
usemtl lambert4.001
f 21/25/10 22/26/10 24/27/10 23/28/10
o water
v -13.852337 -1.184752 14.894706
v 13.852337 -1.184752 14.894706
v -13.852337 -1.184753 8.120948
v 13.852337 -1.184753 8.120948
vn -0.0000 1.0000 -0.0000
vt 0.101554 0.039143
vt 0.907614 0.039143
vt 0.907614 0.282426
vt 0.101554 0.282426
s 1
usemtl lambert5.001
f 25/29/11 26/30/11 28/31/11 27/32/11
o base
v -13.460016 0.003586 8.066987
v 13.736052 0.003586 8.066987
v -13.460016 0.003588 -7.033436
v 13.736052 0.003588 -7.033436
v -13.460016 -1.441591 8.066987
v 13.736052 -1.441591 8.066987
vn -0.0000 1.0000 -0.0000
vn -0.0000 -0.0000 1.0000
vt 0.153450 0.391883
vt 0.846918 0.390737
vt 0.848345 0.947446
vt 0.154878 0.948591
vt 0.152331 0.340707
vt 0.845798 0.339562
s 1
usemtl lambert5.001
f 29/33/12 30/34/12 32/35/12 31/36/12
f 30/34/13 29/33/13 33/37/13 34/38/13
o bridge_bar3
v 4.553015 -1.203302 9.122097
v 4.993652 -1.203302 9.122097
v 4.553015 0.302206 9.122097
v 4.993652 0.302206 9.122097
vn -0.0000 -0.0000 1.0000
vt 0.349837 0.782797
vt 0.405558 0.782797
vt 0.405558 0.968076
vt 0.349837 0.968076
s 1
usemtl lambert4.001
f 35/39/14 36/40/14 38/41/14 37/42/14
o player_spown_area_from_map_(disable_mesh)
v 3.133321 0.004989 -5.074639
v 3.317667 0.004989 -5.074639
v 3.133321 0.004989 -5.258985
v 3.317667 0.004989 -5.258985
vn -0.0000 1.0000 -0.0000
vt 0.000000 0.000000
vt 1.000000 0.000000
vt 1.000000 1.000000
vt 0.000000 1.000000
s 1
usemtl lambert2.001
f 39/43/15 40/44/15 42/45/15 41/46/15
o area_wher_user_can_move_hide_
v 0.848281 0.013972 8.033962
v 5.247208 0.013972 8.033962
v 0.848281 0.013971 -6.894562
v 5.247208 0.013971 -6.894562
v 0.848281 0.013972 -0.922616
v 5.247208 0.013972 -0.922616
v 3.047745 0.013972 8.033962
v 3.047745 0.013971 -6.894562
v 3.047745 0.013972 -0.922616
v 1.948013 0.013971 -6.894562
v 1.948013 0.013972 -0.922616
v 1.948013 0.013972 8.033962
v 5.247208 0.012723 11.424920
v 3.047745 0.012723 11.424920
v 1.948013 0.012723 11.424920
v -13.145857 0.013972 8.033962
v 13.594506 0.013972 8.033962
v 13.594506 0.013972 -0.922616
v 0.848281 0.013972 3.555673
v 5.247208 0.013972 3.555673
v 3.047745 0.013972 3.555673
v 1.948013 0.013972 3.555673
v -13.145857 0.013972 3.555673
v 13.594506 0.013972 3.555673
v -7.030639 0.013972 8.033962
v -6.260186 0.013972 -0.922616
v -7.568944 0.013972 3.555673
vn -0.0000 1.0000 -0.0000
vn -0.0000 1.0000 0.0002
vn -0.0000 1.0000 0.0001
vn -0.0000 1.0000 0.0004
vt 0.500000 0.500000
vt 1.000000 0.500000
vt 1.000000 1.000000
vt 0.500000 1.000000
vt 0.500000 0.250000
vt 1.000000 0.250000
vt 0.250000 0.250000
vt 0.250000 0.500000
vt 0.250000 1.000000
vt 0.000000 0.500000
vt 0.000000 1.000000
vt 0.000000 0.250000
vt 0.500000 0.000000
vt 0.250000 0.000000
vt 1.000000 0.000000
vt 0.000000 0.000000
s 1
usemtl lambert1.002
f 51/47/16 48/48/16 46/49/16 50/50/16
f 63/51/16 62/52/16 48/48/16 51/47/16
f 64/53/16 63/51/16 51/47/16 53/54/16
f 53/54/16 51/47/16 50/50/16 52/55/16
f 47/56/16 53/54/16 52/55/16 45/57/16
f 61/58/16 64/53/16 53/54/16 47/56/16
f 49/59/17 54/60/18 57/60/19 56/59/19
f 44/61/18 49/59/17 56/59/19 55/61/19
f 62/52/16 44/61/18 59/61/16 66/52/16
f 48/48/16 62/52/16 66/52/16 60/48/16
f 67/62/16 69/58/16 65/58/16 58/62/16
f 43/62/16 54/60/18 64/53/16 61/58/16
f 54/60/18 49/59/17 63/51/16 64/53/16
f 49/59/17 44/61/18 62/52/16 63/51/16
f 43/62/16 61/58/16 69/58/16 67/62/16
f 61/58/16 47/56/16 68/56/16 69/58/16
o go_to_map_(disable_
v 1.817158 -0.129246 -6.223988
v 1.817158 0.521007 -6.223987
v 1.817158 -0.129246 -7.387398
v 1.817158 0.521007 -7.387398
v 4.599945 -0.129246 -6.223988
v 4.599945 0.521007 -6.223987
v 4.599945 -0.129246 -7.387398
v 4.599945 0.521007 -7.387398
vn -1.0000 -0.0000 -0.0000
vn -0.0000 -0.0000 -1.0000
vn 1.0000 -0.0000 -0.0000
vn -0.0000 -0.0000 1.0000
vn -0.0000 -1.0000 -0.0000
vn -0.0000 1.0000 -0.0000
vt 0.375000 0.000000
vt 0.625000 0.000000
vt 0.625000 0.250000
vt 0.375000 0.250000
vt 0.625000 0.500000
vt 0.375000 0.500000
vt 0.625000 0.750000
vt 0.375000 0.750000
vt 0.625000 1.000000
vt 0.375000 1.000000
vt 0.125000 0.500000
vt 0.125000 0.750000
vt 0.875000 0.500000
vt 0.875000 0.750000
s 1
usemtl lambert2.001
f 70/63/20 71/64/20 73/65/20 72/66/20
f 72/66/21 73/65/21 77/67/21 76/68/21
f 76/68/22 77/67/22 75/69/22 74/70/22
f 74/70/23 75/69/23 71/71/23 70/72/23
f 72/73/24 76/68/24 74/70/24 70/74/24
f 77/67/25 73/75/25 71/76/25 75/69/25
o tees
v -3.824910 -0.209399 -3.754743
v -1.422695 -0.209399 -4.029089
v -3.805669 3.360245 -3.586270
v -1.403454 3.360245 -3.860615
vn 0.1133 -0.0474 0.9924
vt 0.000000 0.000000
vt 1.000000 0.000000
vt 1.000000 1.000000
vt 0.000000 1.000000
s 0
f 78/77/26 79/78/26 81/79/26 80/80/26
o trees.013
v -6.020613 -0.081409 -2.339052
v -4.697554 -0.081409 -3.288044
v -5.954058 2.322454 -2.246263
v -4.630998 2.322454 -3.195254
vn 0.5822 -0.0474 0.8117
vt 0.000000 0.000000
vt 1.000000 0.000000
vt 1.000000 1.000000
vt 0.000000 1.000000
s 0
f 82/81/27 83/82/27 85/83/27 84/84/27
o trees
v -2.236619 -0.076339 -4.829857
v -0.373829 -0.076339 -5.042598
v -2.221753 2.681808 -4.699683
v -0.358962 2.681808 -4.912424
vn 0.1133 -0.0474 0.9924
vt 0.000000 0.000000
vt 1.000000 0.000000
vt 1.000000 1.000000
vt 0.000000 1.000000
s 0
f 86/85/28 87/86/28 89/87/28 88/88/28
o trees.001
v -2.207128 -0.169845 -1.927135
v -0.168917 -0.169845 -2.159910
v -2.190837 2.852528 -1.784491
v -0.152627 2.852528 -2.017265
vn 0.1133 -0.0474 0.9924
vt 0.000000 0.000000
vt 1.000000 0.000000
vt 1.000000 1.000000
vt 0.000000 1.000000
s 0
f 90/89/29 91/90/29 93/91/29 92/92/29
o trees.002
v -6.030029 -0.209399 -4.829128
v -3.627814 -0.209399 -5.103474
v -6.010788 3.360245 -4.660654
v -3.608573 3.360245 -4.935000
vn 0.1133 -0.0474 0.9924
vt 0.000000 0.000000
vt 1.000000 0.000000
vt 1.000000 1.000000
vt 0.000000 1.000000
s 0
f 94/93/30 95/94/30 97/95/30 96/96/30
o trees.003
v -9.797396 -0.157292 -3.230252
v -8.196917 -0.157292 -4.227127
v -9.727482 2.626500 -3.118007
v -8.127003 2.626500 -4.114882
vn 0.5281 -0.0474 0.8479
vt 0.000000 0.000000
vt 1.000000 0.000000
vt 1.000000 1.000000
vt 0.000000 1.000000
s 0
f 98/97/31 99/98/31 101/99/31 100/100/31
o trees.004
v -12.234889 -0.209399 -5.372569
v -9.993442 -0.209399 -6.279110
v -12.171311 3.360245 -5.215371
v -9.929864 3.360245 -6.121912
vn 0.3745 -0.0474 0.9260
vt 0.000000 0.000000
vt 1.000000 0.000000
vt 1.000000 1.000000
vt 0.000000 1.000000
s 0
f 102/101/32 103/102/32 105/103/32 104/104/32
o trees.015
v -12.840371 -0.209399 0.448483
v -10.598924 -0.209399 -0.458058
v -12.776793 3.360245 0.605682
v -10.535346 3.360245 -0.300859
vn 0.3745 -0.0474 0.9260
vt 0.000000 0.000000
vt 1.000000 0.000000
vt 1.000000 1.000000
vt 0.000000 1.000000
s 0
f 106/105/33 107/106/33 109/107/33 108/108/33
o trees.005
v -13.472071 -0.514454 -2.048723
v -11.413240 -0.514454 -2.881405
v -13.413671 2.764360 -1.904332
v -11.354841 2.764360 -2.737014
vn 0.3745 -0.0474 0.9260
vt 0.000000 0.000000
vt 1.000000 0.000000
vt 1.000000 1.000000
vt 0.000000 1.000000
s 0
f 110/109/34 111/110/34 113/111/34 112/112/34
o trees.006
v -11.940949 -0.209399 6.656102
v -12.054731 -0.209399 4.240951
v -11.771568 3.360245 6.648123
v -11.885350 3.360245 4.232971
vn 0.9978 -0.0474 -0.0470
vt 0.000000 0.000000
vt 1.000000 0.000000
vt 1.000000 1.000000
vt 0.000000 1.000000
s 0
f 114/113/35 115/114/35 117/115/35 116/116/35
o trees.007
v -12.442997 -0.209399 3.922933
v -12.456143 -0.209399 1.505139
v -12.273431 3.360245 3.922011
v -12.286577 3.360245 1.504217
vn 0.9989 -0.0474 -0.0054
vt 0.000000 0.000000
vt 1.000000 0.000000
vt 1.000000 1.000000
vt 0.000000 1.000000
s 0
f 118/117/36 119/118/36 121/119/36 120/120/36
o trees.008
v 5.471177 -0.077087 -5.440232
v 7.509387 -0.077087 -5.673007
v 5.487468 2.945286 -5.297588
v 7.525678 2.945286 -5.530362
vn 0.1133 -0.0474 0.9924
vt 0.000000 0.000000
vt 1.000000 0.000000
vt 1.000000 1.000000
vt 0.000000 1.000000
s 0
f 122/121/37 123/122/37 125/123/37 124/124/37
o trees.009
v 6.204684 -0.468311 -2.211933
v 8.199071 -0.468311 -1.731407
v 6.171054 2.554063 -2.072356
v 8.165442 2.554063 -1.591830
vn -0.2340 -0.0474 0.9711
vt 0.000000 0.000000
vt 1.000000 0.000000
vt 1.000000 1.000000
vt 0.000000 1.000000
s 0
f 126/125/38 127/126/38 129/127/38 128/128/38
o trees.010
v 6.874463 -0.587695 -4.026040
v 8.925145 -0.587695 -3.969578
v 6.870511 2.434678 -3.882522
v 8.921193 2.434678 -3.826061
vn -0.0275 -0.0474 0.9985
vt 0.000000 0.000000
vt 1.000000 0.000000
vt 1.000000 1.000000
vt 0.000000 1.000000
s 0
f 130/129/39 131/130/39 133/131/39 132/132/39
o trees.011
v 10.647514 -0.446337 -3.914523
v 12.239939 -0.446337 -2.621206
v 10.557001 2.576036 -3.803076
v 12.149426 2.576036 -2.509759
vn -0.6297 -0.0474 0.7754
vt 0.000000 0.000000
vt 1.000000 0.000000
vt 1.000000 1.000000
vt 0.000000 1.000000
s 0
f 134/133/40 135/134/40 137/135/40 136/136/40
o trees.012
v 10.493488 -0.169845 -5.971187
v 12.287425 -0.169845 -4.976059
v 10.423844 2.852528 -5.845638
v 12.217781 2.852528 -4.850511
vn -0.4845 -0.0474 0.8735
vt 0.000000 0.000000
vt 1.000000 0.000000
vt 1.000000 1.000000
vt 0.000000 1.000000
s 0
f 138/137/41 139/138/41 141/139/41 140/140/41
o tarot_tent
v -9.657509 -0.361043 5.348806
v -4.939188 -0.488327 2.284948
v -10.624847 4.432130 3.659987
v -5.906526 4.304847 0.596129
vn 0.5119 0.3755 0.7726
vt 0.000000 0.000000
vt 1.000000 0.000000
vt 1.000000 1.000000
vt 0.000000 1.000000
s 0
usemtl Material
f 142/141/42 143/142/42 145/143/42 144/144/42
