# Blender 5.0.1
# www.blender.org
mtllib circus enviornment.mtl
o collider_for_inside_circus_scene_(disable)
v 9.748796 -0.141961 -5.238643
v 9.748796 0.290829 -5.238643
v 9.748796 -0.141961 -6.101456
v 9.748796 0.290829 -6.101456
v 11.077662 -0.141961 -5.238643
v 11.077662 0.290829 -5.238643
v 11.077662 -0.141961 -6.101456
v 11.077662 0.290829 -6.101456
vn -1.0000 -0.0000 -0.0000
vn -0.0000 -0.0000 -1.0000
vn 1.0000 -0.0000 -0.0000
vn -0.0000 -0.0000 1.0000
vn -0.0000 -1.0000 -0.0000
vn -0.0000 1.0000 -0.0000
vt 0.375000 0.000000
vt 0.625000 0.000000
vt 0.625000 0.250000
vt 0.375000 0.250000
vt 0.625000 0.500000
vt 0.375000 0.500000
vt 0.625000 0.750000
vt 0.375000 0.750000
vt 0.625000 1.000000
vt 0.375000 1.000000
vt 0.125000 0.500000
vt 0.125000 0.750000
vt 0.875000 0.500000
vt 0.875000 0.750000
s 1
usemtl lambert1
f 1/1/1 2/2/1 4/3/1 3/4/1
f 3/4/2 4/3/2 8/5/2 7/6/2
f 7/6/3 8/5/3 6/7/3 5/8/3
f 5/8/4 6/7/4 2/9/4 1/10/4
f 3/11/5 7/6/5 5/8/5 1/12/5
f 8/5/6 4/13/6 2/14/6 6/7/6
o go_to_map_(disable_
v -15.022341 -0.059244 0.858641
v -15.022342 0.595143 0.858641
v -16.074730 -0.059245 0.828637
v -16.074730 0.595142 0.828637
v -14.946425 -0.059244 -1.804090
v -14.946426 0.595143 -1.804090
v -15.998815 -0.059245 -1.834094
v -15.998816 0.595142 -1.834094
vn -0.0285 -0.0000 0.9996
vn -0.9996 -0.0000 -0.0285
vn 0.0285 -0.0000 -0.9996
vn 0.9996 -0.0000 0.0285
vn -0.0000 -1.0000 -0.0000
vn -0.0000 1.0000 -0.0000
vt 0.375000 0.000000
vt 0.625000 0.000000
vt 0.625000 0.250000
vt 0.375000 0.250000
vt 0.625000 0.500000
vt 0.375000 0.500000
vt 0.625000 0.750000
vt 0.375000 0.750000
vt 0.625000 1.000000
vt 0.375000 1.000000
vt 0.125000 0.500000
vt 0.125000 0.750000
vt 0.875000 0.500000
vt 0.875000 0.750000
s 1
usemtl lambert1
f 9/15/7 10/16/7 12/17/7 11/18/7
f 11/18/8 12/17/8 16/19/8 15/20/8
f 15/20/9 16/19/9 14/21/9 13/22/9
f 13/22/10 14/21/10 10/23/10 9/24/10
f 11/25/11 15/20/11 13/22/11 9/26/11
f 16/19/12 12/27/12 10/28/12 14/21/12
o base-m5
v -12.776362 0.074435 7.256019
v 16.677288 0.074435 7.256019
v 18.143520 0.074434 5.079575
v 18.143520 0.074433 -5.022867
v 16.677288 0.074432 -7.199313
v -12.776362 0.074432 -7.199313
v -14.242590 0.074433 -5.690162
v -14.242590 0.074435 5.746871
v -12.851236 0.074435 7.451019
v 16.772268 0.074435 7.451019
v 18.327847 0.074434 5.141952
v 18.327847 0.074433 -5.085243
v 16.772268 0.074432 -7.394313
v -12.851236 0.074432 -7.394313
v -14.426920 0.074433 -5.772504
v -14.426920 0.074435 5.829213
vn -0.0000 1.0000 -0.0000
vt 0.045398 0.073458
vt 0.082059 0.028954
vt 0.818509 0.028954
vt 0.855170 0.093137
vt 0.855170 0.391057
vt 0.818509 0.455240
vt 0.082059 0.455240
vt 0.045398 0.410735
vt 0.080187 0.023203
vt 0.820884 0.023203
vt 0.859779 0.091297
vt 0.859779 0.392896
vt 0.820884 0.460990
vt 0.080187 0.460990
vt 0.040789 0.413163
vt 0.040789 0.071030
s 1
usemtl lambert3
f 24/29/13 17/30/13 18/31/13 19/32/13 20/33/13 21/34/13 22/35/13 23/36/13
f 18/31/13 17/30/13 25/37/13 26/38/13
f 20/33/13 19/32/13 27/39/13 28/40/13
f 22/35/13 21/34/13 29/41/13 30/42/13
f 24/29/13 23/36/13 31/43/13 32/44/13
f 17/30/13 24/29/13 32/44/13 25/37/13
f 19/32/13 18/31/13 26/38/13 27/39/13
f 23/36/13 22/35/13 30/42/13 31/43/13
f 21/34/13 20/33/13 28/40/13 29/41/13
o user_walking_space-m5
v -15.990274 0.079190 1.673760
v 14.986221 0.079190 1.673760
v -15.990274 0.079190 -1.371179
v 14.986221 0.079190 -1.371179
v -7.423243 0.079190 1.210256
v -7.423243 0.079190 -1.834682
v 5.307339 0.079190 2.564652
v 5.307339 0.079190 -0.480287
v 9.222414 0.079190 -1.184106
v 11.880575 0.079190 -1.371179
v 11.957203 0.079190 1.673760
v 9.299042 0.079190 1.860833
v 11.659824 0.079190 -7.048257
v 9.001663 0.079190 -6.861184
vn -0.0000 1.0000 -0.0000
vt 0.029662 0.555298
vt 0.256952 0.571222
vt 0.256207 0.663816
vt 0.028917 0.647892
vt 0.666825 0.533329
vt 0.666080 0.625924
vt 0.877323 0.654716
vt 0.880533 0.562141
vt 0.977976 0.562925
vt 0.977231 0.655519
vt 0.795065 0.555765
vt 0.791856 0.648339
vt 0.868833 0.827294
vt 0.783366 0.820918
s 1
usemtl lambert3
f 33/45/14 37/46/14 38/47/14 35/48/14
f 37/46/14 39/49/14 40/50/14 38/47/14
f 42/51/14 43/52/14 34/53/14 36/54/14
f 39/49/14 44/55/14 41/56/14 40/50/14
f 42/51/14 41/56/14 44/55/14 43/52/14
f 41/56/14 42/51/14 45/57/14 46/58/14
o player_spown_area_from_map_(disable_mesh)
v -13.541327 0.075845 -0.283737
v -13.374514 0.075845 -0.283737
v -13.541327 0.075845 -0.460207
v -13.374514 0.075845 -0.460207
vn -0.0000 1.0000 -0.0000
vt 0.000000 0.000000
vt 1.000000 0.000000
vt 1.000000 1.000000
vt 0.000000 1.000000
s 1
usemtl lambert1
f 47/59/15 48/60/15 50/61/15 49/62/15
o circus_tent__m3
v 6.684046 -0.258556 -6.502703
v 14.490057 -0.258556 -6.502703
v 6.684046 7.754360 -7.288917
v 14.490057 7.754360 -7.288917
v 10.587051 -0.234576 -6.199572
v 10.587051 7.778341 -6.985786
v 8.635549 7.778341 -6.985786
v 8.635549 -0.234576 -6.199572
v 12.538554 -0.234576 -6.199572
v 12.538554 7.778341 -6.985786
vn 0.1539 0.0965 0.9834
vn -0.0000 0.0976 0.9952
vn -0.1539 0.0965 0.9834
vt 0.750000 0.000000
vt 1.000000 0.000000
vt 1.000000 1.000000
vt 0.750000 1.000000
vt 0.250000 0.000000
vt 0.500000 0.000000
vt 0.500000 1.000000
vt 0.250000 1.000000
vt 0.000000 0.000000
vt 0.000000 1.000000
s 0
usemtl Material
f 59/63/16 52/64/16 54/65/16 60/66/16
f 58/67/17 55/68/17 56/69/17 57/70/17
f 51/71/18 58/67/18 57/70/18 53/72/18
f 55/68/17 59/63/17 60/66/17 56/69/17
o circular_trolly_circus_M1
v -12.141527 -0.249748 -5.312714
v -1.697897 -0.359164 -6.901415
v -12.365343 11.233576 -7.574882
v -1.921713 11.124161 -9.163584
vn 0.1495 0.1939 0.9696
vt 0.000000 0.000000
vt 1.000000 0.000000
vt 1.000000 1.000000
vt 0.000000 1.000000
s 0
usemtl Material.001
f 61/73/19 62/74/19 64/75/19 63/76/19
o circus_Props_M2
v -5.057173 0.100017 -4.481018
v -2.725538 0.100017 -4.481018
v -5.057173 1.804143 -4.932452
v -2.725538 1.804143 -4.932452
vn -0.0000 0.2561 0.9667
vt 0.348599 0.346532
vt 0.742346 0.346532
vt 0.742346 0.740279
vt 0.348599 0.740279
s 0
usemtl Material.002
f 65/77/20 66/78/20 68/79/20 67/80/20
o circus_props_m2.007
v -12.303717 0.172423 4.241065
v -9.833786 0.172423 4.241065
v -12.303717 1.523621 3.478287
v -9.833786 1.523621 3.478287
vn -0.0000 0.4916 0.8708
vt 0.013756 0.022541
vt 0.363065 0.022541
vt 0.363065 0.344979
vt 0.013756 0.334128
s 0
usemtl Material.003
f 69/81/21 70/82/21 72/83/21 71/84/21
o circus_props_m2.008
v -12.942389 0.196269 -3.414230
v -11.149178 0.061885 -3.713161
v -13.013870 1.834794 -4.579623
v -11.220658 1.700409 -4.878554
vn 0.1762 0.5756 0.7985
vt 0.015805 0.338988
vt 0.317651 0.351292
vt 0.300899 0.783856
vt 0.019086 0.808659
s 0
usemtl Material.003
f 73/85/22 74/86/22 76/87/22 75/88/22
o circus_props_m2-1
v 4.101861 0.002674 -1.200030
v 6.561678 -0.014623 -1.454945
v 4.077449 1.516745 -1.538328
v 6.537266 1.499448 -1.793244
vn 0.1021 0.2185 0.9705
vt 0.364101 0.045794
vt 0.771283 0.045794
vt 0.771283 0.344979
vt 0.364101 0.334128
s 0
usemtl Material.003
f 77/89/23 78/90/23 80/91/23 79/92/23
o circus_props_m2
v 6.454533 -0.121539 -0.957253
v 8.887107 -0.069200 -1.438807
v 6.356904 1.391125 -1.286019
v 8.789477 1.443465 -1.767574
vn 0.1849 0.2201 0.9578
vt 0.364101 0.045794
vt 0.771283 0.045794
vt 0.771283 0.344979
vt 0.364101 0.334128
s 0
usemtl Material.003
f 81/93/24 82/94/24 84/95/24 83/96/24
o circus_props_m2.001
v 14.164791 -0.105800 -1.147586
v 16.628166 -0.105800 -1.341680
v 14.146231 1.427726 -1.383147
v 16.609606 1.427726 -1.577241
vn 0.0776 0.1523 0.9853
vt 0.364101 0.045794
vt 0.771283 0.045794
vt 0.771283 0.344979
vt 0.364101 0.334128
s 0
usemtl Material.004
f 85/97/25 86/98/25 88/99/25 87/100/25
o circus_props_m2.002
v 11.849790 -0.015707 -1.378491
v 14.319720 -0.015707 -1.378491
v 11.849790 1.517829 -1.614783
v 14.319720 1.517829 -1.614783
vn -0.0000 0.1523 0.9883
vt 0.364101 0.045794
vt 0.771283 0.045794
vt 0.771283 0.344979
vt 0.364101 0.334128
s 0
usemtl Material.004
f 89/101/26 90/102/26 92/103/26 91/104/26
o circus_props_m2.003
v 8.658535 -0.134405 -1.458044
v 8.771424 -0.127283 -4.068168
v 8.327479 1.376228 -1.468241
v 8.440369 1.383350 -4.078364
vn 0.9759 0.2141 0.0428
vt 0.364101 0.045794
vt 0.771283 0.045794
vt 0.771283 0.344979
vt 0.364101 0.334128
s 0
usemtl Material.005
f 93/105/27 94/106/27 96/107/27 95/108/27
o circus_props_m2.004
v 8.726865 -0.119334 -3.744979
v 8.819126 -0.106179 -6.356045
v 8.279778 1.355124 -3.753349
v 8.372039 1.368279 -6.364415
vn 0.9563 0.2902 0.0353
vt 0.364101 0.045794
vt 0.771283 0.045794
vt 0.771283 0.344979
vt 0.364101 0.334128
s 0
usemtl Material.006
f 97/109/28 98/110/28 100/111/28 99/112/28
o circus_props_m2.005
v 11.755481 -0.141455 -6.328868
v 12.135596 -0.141455 -3.746157
v 11.988999 1.390400 -6.363237
v 12.369115 1.390400 -3.780526
vn -0.9778 0.1523 0.1439
vt 0.364101 0.045794
vt 0.771283 0.045794
vt 0.771283 0.344979
vt 0.364101 0.334128
s 0
usemtl Material.007
f 101/113/29 102/114/29 104/115/29 103/116/29
o circus_props_m2.006
v 11.964920 -0.141455 -3.966949
v 12.345036 -0.141455 -1.384238
v 12.198439 1.390400 -4.001318
v 12.578554 1.390400 -1.418606
vn -0.9778 0.1523 0.1439
vt 0.364101 0.045794
vt 0.771283 0.045794
vt 0.771283 0.344979
vt 0.364101 0.334128
s 0
usemtl Material.008
f 105/117/30 106/118/30 108/119/30 107/120/30
o popcorn_machine
v -6.022869 -0.057023 6.101208
v -2.745048 -0.057023 6.101208
v -6.022869 3.051583 4.408571
v -2.745048 3.051583 4.408571
vn -0.0000 0.4782 0.8782
vt 0.000000 0.000000
vt 1.000000 0.000000
vt 1.000000 1.000000
vt 0.000000 1.000000
s 0
usemtl Material.009
f 109/121/31 110/122/31 112/123/31 111/124/31
o circus_props_m2.009
v 13.392159 0.221582 3.412264
v 15.185370 0.077118 3.118072
v 13.320678 1.819561 2.191867
v 15.113890 1.675097 1.897675
vn 0.1762 0.6024 0.7785
vt 0.015805 0.338988
vt 0.317651 0.351292
vt 0.300899 0.783856
vt 0.019086 0.808659
s 0
usemtl Material.010
f 113/125/32 114/126/32 116/127/32 115/128/32
o banner_of_owner_m7
v 0.670587 0.047764 -2.446104
v -0.495548 0.069452 -2.814424
v 0.804014 2.378839 -2.731284
v -0.362121 2.400527 -3.099604
vn 0.2963 -0.1327 -0.9458
vt 0.000000 0.000000
vt 1.000000 0.000000
vt 1.000000 1.000000
vt 0.000000 1.000000
s 0
usemtl Material.011
f 117/129/33 118/130/33 120/131/33 119/132/33
o circus_props_m2.010
v 0.418769 0.106419 -1.796823
v 1.597538 0.018081 -1.993326
v 0.371780 1.183504 -2.562895
v 1.550550 1.095166 -2.759398
vn 0.1762 0.5756 0.7985
vt 0.015805 0.338988
vt 0.317651 0.351292
vt 0.300899 0.783856
vt 0.019086 0.808659
s 0
usemtl Material.012
f 121/133/34 122/134/34 124/135/34 123/136/34
